<?xml version="1.0" standalone="no"?>
<!DOCTYPE svg PUBLIC "-//W3C//DTD SVG 20010904//EN"
 "http://www.w3.org/TR/2001/REC-SVG-20010904/DTD/svg10.dtd">
<svg version="1.0" xmlns="http://www.w3.org/2000/svg"
 width="300.000000pt" height="300.000000pt" viewBox="0 0 300.000000 300.000000"
 preserveAspectRatio="xMidYMid meet">
<metadata>
Created by potrace 1.10, written by Peter Selinger 2001-2011
</metadata>
<g transform="translate(0.000000,300.000000) scale(0.100000,-0.100000)"
fill="#000000" stroke="none">
<path d="M1015 2930 c-428 -61 -531 -78 -485 -79 8 0 242 33 520 73 278 41
489 74 470 74 -19 0 -247 -31 -505 -68z"/>
<path d="M1776 2978 c-21 -30 -20 -71 3 -99 l18 -23 385 55 385 55 11 -80 c7
-55 7 -83 0 -87 -7 -4 -6 -8 1 -10 9 -3 80 -432 81 -489 0 -13 -76 -26 -417
-75 -230 -33 -411 -61 -402 -63 9 -2 190 22 402 52 212 31 393 56 404 56 17 0
21 -17 41 -161 13 -89 21 -163 19 -165 -2 -2 -56 -12 -120 -21 -86 -12 -117
-20 -117 -30 0 -8 -4 -11 -10 -8 -15 10 -12 -21 4 -34 17 -14 32 3 28 32 -2 9
-1 17 2 17 4 0 51 7 107 15 55 8 105 13 109 10 19 -12 -9 -95 -31 -95 -12 0
-11 47 1 55 13 8 13 25 -1 25 -6 0 -18 -18 -26 -40 -9 -22 -22 -40 -28 -40
-21 0 -25 28 -8 45 19 20 9 33 -12 15 -18 -15 -20 -56 -4 -66 24 -14 84 -13
101 3 19 17 20 15 31 -34 6 -27 39 -19 -337 -73 -154 -22 -282 -43 -285 -46
-3 -4 10 -4 29 -1 19 4 150 22 290 42 140 19 267 38 281 41 26 5 27 4 38 -71
6 -42 11 -82 11 -89 0 -10 -75 -24 -280 -52 -154 -21 -280 -42 -280 -46 0 -4
12 -5 28 -2 44 8 514 74 527 74 8 0 15 -24 19 -65 4 -36 9 -71 12 -78 4 -11
-45 -21 -218 -45 -123 -18 -235 -32 -250 -32 -16 0 -28 -5 -28 -10 0 -7 13 -9
33 -5 43 7 447 65 457 65 7 0 34 -150 28 -156 -2 -1 -86 -14 -188 -28 -207
-30 -243 -36 -237 -42 2 -2 98 9 212 26 152 22 211 27 216 19 4 -6 10 -37 13
-68 4 -31 8 -67 11 -81 14 -88 25 -173 23 -175 -2 -1 -106 -17 -233 -34 -126
-18 -238 -34 -247 -35 -15 -4 -15 0 3 32 10 20 19 46 18 57 -1 11 -6 3 -11
-18 -12 -44 -62 -97 -116 -121 -20 -9 -45 -30 -54 -46 -9 -15 -29 -36 -45 -46
-15 -10 -45 -33 -66 -51 -20 -18 -43 -33 -51 -33 -8 0 -27 -11 -43 -24 -32
-27 -157 -86 -182 -86 -10 0 -22 -5 -28 -11 -7 -7 -42 -13 -80 -15 -37 -1 -86
-8 -108 -13 -80 -21 -262 -13 -436 19 -90 16 -182 35 -204 41 -39 11 -127 92
-271 250 -38 41 -60 59 -60 48 0 -10 3 -16 6 -15 3 2 13 -4 23 -14 22 -21 52
-15 -343 -70 -162 -23 -304 -45 -315 -50 -16 -7 -14 -8 10 -4 17 2 173 24 348
49 l318 44 32 -37 c18 -20 47 -52 66 -69 19 -18 33 -35 30 -37 -2 -2 -187 -30
-412 -62 -224 -31 -405 -59 -402 -62 2 -2 190 22 418 54 l414 58 36 -40 c34
-39 58 -50 171 -82 21 -6 -50 -19 -280 -51 -296 -41 -396 -58 -364 -60 8 -1
173 22 368 49 385 55 343 54 537 15 46 -9 265 -5 310 5 22 5 60 10 84 10 90 0
226 50 331 121 l55 37 399 56 c219 32 399 56 401 54 3 -4 25 -152 22 -154 -3
-3 -328 -50 -1342 -194 -467 -66 -854 -122 -860 -125 -30 -11 115 8 1110 150
599 85 1090 153 1092 151 8 -7 24 -132 20 -148 -3 -10 -1 -18 4 -18 5 0 9 -5
9 -11 0 -5 -4 -8 -8 -5 -17 10 -51 -26 -58 -61 -5 -26 -2 -46 11 -70 l18 -33
27 25 27 26 7 -62 c3 -34 5 -64 3 -66 -2 -1 -45 -6 -95 -9 -51 -4 -92 -11 -92
-17 0 -9 91 -4 168 9 31 6 32 5 33 -27 0 -30 17 -87 18 -65 1 5 -6 56 -15 114
-8 58 -17 124 -18 146 -2 23 -10 82 -19 131 -9 50 -18 108 -21 130 -3 22 -14
103 -26 180 -28 197 -31 182 43 191 34 4 54 9 45 11 -9 2 -39 0 -66 -5 l-50
-9 -6 56 c-4 31 -9 68 -12 82 -5 26 -4 27 58 34 35 4 70 11 78 17 11 6 6 7
-15 4 -16 -3 -51 -8 -77 -12 l-47 -6 -6 33 c-9 56 -65 450 -65 464 0 8 36 16
105 25 58 7 108 16 110 20 2 4 -37 1 -88 -6 -145 -21 -133 -27 -145 68 -6 46
-9 84 -7 86 2 2 55 11 117 19 62 8 117 19 121 23 7 6 -109 -8 -209 -25 -28 -5
-33 -2 -38 21 -4 15 -2 32 5 40 9 11 8 14 -5 14 -9 0 -16 5 -16 10 0 6 6 10
13 10 8 0 7 4 -3 10 -10 6 -11 10 -2 10 6 0 12 5 12 11 0 5 -4 8 -9 5 -5 -3
-11 9 -14 27 -16 88 -49 338 -46 342 3 2 76 14 163 26 88 13 155 24 148 27 -6
2 -75 -6 -152 -17 -78 -12 -147 -21 -154 -21 -8 0 -16 27 -23 78 -5 42 -10 78
-9 79 1 1 71 11 156 23 85 12 164 25 175 30 17 8 17 9 -5 5 -72 -13 -322 -46
-326 -43 -5 6 -26 149 -22 153 2 2 85 16 183 30 99 15 182 29 184 31 7 7 -12
5 -190 -21 -95 -14 -176 -22 -180 -18 -5 5 -9 36 -11 70 -2 35 -6 63 -9 63 -4
0 -7 10 -7 23 0 12 -5 51 -11 87 -6 36 -11 70 -11 77 0 6 28 16 63 22 l62 10
-64 -5 c-47 -4 -66 -2 -72 8 -7 10 -9 10 -9 -2 0 -13 -63 -24 -337 -63 -186
-26 -343 -47 -348 -47 -6 0 -9 19 -7 45 4 44 -9 75 -31 75 -5 0 -3 -8 6 -18
18 -20 22 -78 8 -101 -13 -20 -59 -5 -72 23 -8 17 -7 32 5 59 17 42 14 47 -8
15z m1085 -2100 c0 -2 6 -37 13 -79 l12 -76 -367 -52 c-202 -29 -375 -51 -386
-49 -14 3 -11 8 17 22 19 11 58 42 87 70 99 96 87 92 344 130 224 32 278 39
280 34z m79 -557 c16 -31 12 -66 -11 -87 -17 -16 -22 -16 -29 -4 -20 31 -5
110 20 110 5 0 14 -9 20 -19z"/>
<path d="M1656 2974 c-23 -23 -31 -63 -18 -98 7 -16 11 -30 9 -31 -1 -1 -175
-26 -387 -55 -212 -30 -378 -56 -369 -58 16 -3 863 114 884 123 6 2 2 4 -7 4
-11 1 -18 9 -18 21 0 17 -6 20 -37 18 -37 -1 -37 -1 -5 -5 51 -7 37 -43 -18
-43 -10 0 -25 11 -34 26 -14 21 -15 31 -6 60 8 22 18 34 30 34 10 0 22 5 25
10 10 16 -32 11 -49 -6z"/>
<path d="M123 2920 c-58 -35 -76 -104 -44 -168 27 -54 56 -72 111 -72 69 0
103 31 121 110 23 103 -96 186 -188 130z m30 -42 c22 17 53 19 66 4 13 -13 16
-13 26 1 10 14 13 13 25 -6 12 -19 11 -20 -2 -10 -21 18 -30 4 -13 -21 22 -31
18 -62 -11 -85 -31 -25 -71 -27 -101 -6 -12 8 -28 12 -37 9 -9 -3 -16 -2 -16
2 0 5 -3 20 -6 34 -4 22 -3 22 11 -5 12 -24 14 -26 11 -7 -3 13 2 39 10 58 9
22 10 34 4 34 -6 0 -8 5 -4 11 5 8 10 6 16 -5 6 -11 14 -14 21 -8z m94 -142
c-4 -10 -1 -13 9 -9 26 10 15 -6 -16 -22 -39 -20 -81 -20 -74 0 4 8 2 15 -4
15 -6 0 -12 -6 -15 -12 -3 -10 -8 -10 -21 1 -15 13 -15 16 -2 23 16 9 66 -9
66 -24 0 -4 7 -8 15 -8 8 0 15 5 15 11 0 5 -4 7 -10 4 -5 -3 -10 -2 -10 2 0 5
10 13 23 19 30 16 30 16 24 0z"/>
<path d="M136 2834 c-14 -37 -7 -54 24 -54 23 0 31 5 36 25 7 28 34 34 34 8 0
-14 -2 -15 -9 -5 -7 11 -10 10 -15 -3 -9 -24 -8 -25 20 -25 22 0 25 3 20 23
-3 12 -6 28 -6 35 0 6 -11 12 -25 12 -18 0 -26 -7 -31 -25 -7 -28 -34 -34 -34
-7 0 13 2 14 9 4 7 -11 10 -10 15 3 9 24 8 25 -13 25 -10 0 -22 -7 -25 -16z"/>
<path d="M435 2920 c-3 -5 -3 -15 1 -22 4 -6 3 -8 -3 -5 -5 3 -17 -10 -26 -29
-19 -38 -22 -58 -7 -34 8 12 10 10 11 -10 1 -14 2 -31 2 -37 -1 -7 3 -10 8 -8
13 9 39 -49 29 -66 -8 -12 -12 -11 -24 6 -9 11 -16 25 -16 31 0 6 -6 17 -14
24 -8 6 -13 19 -10 28 3 9 -2 6 -10 -8 -16 -27 -22 -55 -6 -30 5 8 10 10 10 5
0 -6 -5 -16 -11 -22 -15 -15 36 -53 72 -53 16 0 30 3 30 8 1 4 3 16 5 27 1 11
5 31 9 45 5 24 5 24 -4 3 -6 -13 -13 -23 -15 -23 -11 0 -35 58 -28 65 4 5 1 5
-5 1 -18 -10 -16 7 4 49 l17 35 47 -86 c25 -47 49 -82 52 -78 6 10 -94 194
-105 194 -4 0 -10 -4 -13 -10z"/>
<path d="M2142 2883 c-13 -3 -22 -8 -20 -11 2 -4 12 -31 23 -59 17 -45 23 -52
40 -47 37 11 53 26 21 19 -40 -8 -53 14 -23 38 l22 18 -24 -6 c-15 -5 -27 -2
-32 6 -14 22 -11 27 19 37 28 11 15 13 -26 5z"/>
<path d="M2883 2868 c6 -24 4 -26 -44 -32 -28 -4 -54 -4 -57 -1 -10 10 21 26
41 21 9 -2 17 0 17 5 0 14 -43 10 -62 -5 -10 -7 -18 -18 -18 -24 0 -6 -10 -13
-22 -15 -13 -2 1 -2 31 0 46 4 53 2 43 -10 -9 -11 -7 -19 13 -37 14 -13 25
-18 25 -12 0 6 -9 16 -21 22 -20 11 -20 12 -3 31 22 24 64 25 65 2 0 -14 2
-13 9 5 7 16 18 22 42 22 18 0 40 5 48 10 14 9 -8 8 -72 -5 -12 -2 -18 3 -18
15 0 11 -5 22 -11 26 -8 5 -10 -1 -6 -18z"/>
<path d="M2032 2861 c-10 -6 -11 -21 -3 -71 6 -35 9 -65 8 -66 -4 -4 -135 -24
-154 -24 -17 0 -23 9 -32 50 -14 63 -14 58 7 64 9 3 -1 3 -22 1 -22 -2 -44
-10 -50 -16 -8 -9 -4 -10 15 -5 24 5 27 3 32 -32 3 -20 8 -45 12 -54 6 -15 1
-18 -26 -19 -19 0 -28 -3 -21 -6 14 -6 474 58 468 65 -5 4 -166 -15 -197 -24
-13 -4 -18 4 -21 31 -3 28 -1 35 13 35 10 0 25 -10 33 -22 9 -12 18 -19 22
-16 3 4 -5 18 -19 32 -14 14 -21 28 -16 31 5 4 9 17 9 31 0 18 -5 24 -22 24
-13 0 -29 -4 -36 -9z m48 -15 c0 -18 -27 -39 -40 -31 -14 9 -13 32 3 38 23 10
37 7 37 -7z"/>
<path d="M1977 2819 c6 -32 -12 -79 -32 -79 -6 0 -17 21 -25 48 -8 26 -16 40
-17 32 -5 -21 21 -93 35 -98 24 -8 52 37 52 83 0 25 -4 45 -10 45 -5 0 -7 -13
-3 -31z"/>
<path d="M2683 2843 c-7 -2 -13 -12 -13 -20 0 -11 -7 -14 -26 -9 -17 5 -23 3
-19 -4 3 -5 17 -10 31 -10 24 0 28 -7 24 -48 -2 -27 23 -38 53 -24 21 10 21
11 -5 11 -37 1 -43 16 -17 42 20 20 20 21 1 15 -29 -9 -35 25 -7 41 20 12 4
17 -22 6z"/>
<path d="M2529 2796 c-2 -3 -22 -7 -44 -10 -116 -16 -206 -34 -178 -35 30 -1
31 -2 26 -40 -7 -55 10 -83 50 -79 29 3 32 6 35 41 3 30 0 37 -15 37 -10 0
-25 -5 -33 -10 -12 -8 -9 -10 13 -10 20 0 27 -5 27 -20 0 -28 -27 -36 -50 -15
-23 21 -26 67 -6 84 8 7 27 16 43 20 27 7 29 5 50 -48 12 -31 22 -48 22 -38 1
10 -6 34 -14 54 -8 20 -13 38 -11 41 9 8 74 -19 91 -38 22 -24 35 -26 35 -5 0
8 -3 14 -7 13 -5 -1 -24 7 -43 17 l-35 20 38 3 c20 2 35 7 32 13 -7 10 -19 12
-26 5z"/>
<path d="M1598 2768 c-42 -11 -42 -11 -29 -71 6 -23 12 -55 16 -70 3 -15 10
-25 15 -22 7 4 7 13 0 24 -8 17 -4 19 45 26 30 3 60 3 65 0 6 -4 25 -1 42 6
29 12 30 14 25 62 -6 49 -12 65 -22 56 -2 -3 0 -20 5 -38 12 -41 4 -61 -25
-61 -19 0 -24 7 -30 38 -3 20 -11 44 -16 52 -11 15 -8 -15 6 -72 6 -24 4 -26
-45 -32 -29 -4 -55 -5 -57 -2 -11 11 7 36 26 36 11 0 23 5 26 11 5 7 -5 8 -29
4 -32 -6 -36 -5 -36 13 0 15 9 22 30 27 16 4 32 11 35 16 7 11 3 10 -47 -3z"/>
<path d="M734 2723 c-8 -16 -25 -48 -38 -73 -21 -41 -26 -45 -60 -45 -37 0
-40 -3 -115 -112 -43 -62 -101 -157 -129 -211 -44 -84 -52 -108 -52 -154 0
-80 45 -130 134 -147 84 -16 155 35 216 156 19 37 54 96 77 130 68 100 96 162
90 199 -6 34 16 78 65 131 11 11 18 29 16 40 -3 18 -151 113 -176 113 -7 0
-20 -12 -28 -27z m101 -28 c83 -50 78 -44 61 -70 -22 -34 -19 -45 4 -16 11 13
20 19 20 15 0 -5 -13 -23 -28 -39 -15 -17 -23 -25 -18 -18 5 8 6 16 3 19 -3 3
-17 -12 -31 -35 -17 -27 -31 -39 -41 -35 -8 4 -15 10 -15 14 0 4 -8 10 -17 14
-10 3 -35 17 -56 29 l-37 24 20 25 c11 15 20 32 20 38 0 7 9 28 21 47 20 33
22 33 45 18 13 -8 35 -22 49 -30z m-130 -135 c17 -10 54 -33 83 -50 34 -21 49
-36 44 -43 -4 -7 -22 -34 -40 -62 l-32 -50 -65 0 c-62 0 -66 -1 -72 -25 -7
-32 -22 -50 -40 -50 -11 0 -11 6 5 28 10 15 24 42 31 59 8 18 17 30 22 27 12
-7 23 22 15 41 -5 13 -10 14 -27 5 -11 -6 -18 -17 -16 -24 3 -7 -8 -37 -24
-67 -16 -30 -34 -66 -40 -81 -14 -35 -29 -27 -29 15 0 37 8 51 33 60 27 10 17
42 -13 42 -19 0 -24 -5 -23 -20 2 -11 -3 -30 -9 -43 -9 -17 -9 -34 -2 -62 12
-42 4 -65 -28 -88 -20 -15 -24 -37 -8 -47 15 -9 40 14 40 35 0 31 52 100 79
107 15 3 41 21 59 40 30 31 102 58 102 39 0 -4 -15 -30 -33 -59 -18 -29 -62
-105 -97 -170 l-65 -118 -62 3 c-55 4 -67 8 -98 38 -32 31 -35 39 -35 91 0 45
7 69 34 120 29 55 38 64 60 63 18 -1 20 0 6 3 -11 2 -20 7 -20 9 0 11 33 67
70 120 39 55 41 57 92 61 60 5 133 20 103 22 -11 0 -47 -3 -79 -9 -33 -5 -61
-8 -64 -6 -2 2 7 20 20 40 21 34 26 36 58 31 19 -4 49 -15 65 -25z m109 -182
c-14 -29 -41 -74 -60 -100 -18 -26 -51 -82 -73 -125 -21 -43 -51 -89 -65 -102
-35 -33 -33 -24 14 53 22 36 40 68 40 72 0 11 163 265 167 260 2 -2 -8 -28
-23 -58z"/>
<path d="M736 2663 c-7 -16 8 -33 30 -33 18 0 27 32 12 42 -20 12 -35 9 -42
-9z"/>
<path d="M803 2625 c-6 -18 -5 -20 23 -29 25 -8 43 22 22 36 -20 12 -38 9 -45
-7z"/>
<path d="M2260 2725 c0 -4 7 -20 16 -36 22 -43 11 -46 -32 -10 -21 17 -40 28
-42 26 -7 -7 20 -95 31 -102 6 -4 8 2 4 15 -23 73 -24 70 12 39 52 -44 65 -30
37 38 -13 31 -26 45 -26 30z"/>
<path d="M655 2705 c-5 -2 -50 -9 -98 -15 -48 -7 -86 -14 -84 -17 6 -5 229 25
236 32 5 6 -38 5 -54 0z"/>
<path d="M2135 2693 c-35 -8 -39 -20 -25 -65 18 -57 19 -58 60 -42 l35 14 -35
-3 c-26 -1 -36 2 -38 16 -2 9 4 20 12 23 9 3 16 10 16 15 0 6 -8 5 -19 -1 -13
-7 -22 -7 -26 0 -9 14 3 30 23 30 9 0 24 5 32 10 13 9 13 10 0 9 -8 -1 -24 -3
-35 -6z"/>
<path d="M162 2635 c-85 -13 -156 -26 -160 -30 -3 -3 12 -3 33 0 22 4 110 17
195 30 85 12 139 23 120 23 -19 0 -104 -11 -188 -23z"/>
<path d="M1212 2605 c-161 -24 -296 -46 -300 -50 -4 -4 9 -4 28 -1 19 3 166
24 325 46 160 23 295 43 300 45 33 12 -97 -3 -353 -40z"/>
<path d="M2097 2555 c-241 -35 -441 -66 -444 -69 -4 -3 -4 -6 -1 -6 10 0 923
130 938 134 71 17 -128 -7 -493 -59z"/>
<path d="M1458 2563 c18 -2 45 -2 60 0 15 2 0 4 -33 4 -33 0 -45 -2 -27 -4z"/>
<path d="M232 2465 c-123 -18 -227 -36 -230 -40 -4 -4 6 -5 23 -1 17 3 129 19
250 37 121 17 222 33 224 35 8 8 -45 2 -267 -31z"/>
<path d="M2165 2389 c-220 -32 -406 -58 -414 -58 -8 -1 -12 -4 -9 -7 5 -5 849
112 873 121 32 12 -94 -4 -450 -56z"/>
<path d="M985 2397 c-77 -12 -132 -23 -123 -25 18 -3 310 37 317 44 8 8 -54 2
-194 -19z"/>
<path d="M1376 2398 c-8 -13 -145 -302 -304 -643 -159 -341 -299 -642 -312
-668 -16 -35 -20 -54 -14 -68 8 -17 31 24 129 235 65 141 120 256 121 256 1 0
16 -24 33 -54 l31 -54 -27 -60 c-21 -46 -33 -61 -49 -62 -16 0 -35 -32 -102
-177 l-82 -176 37 -41 c20 -23 72 -78 115 -124 l79 -83 141 -25 c77 -14 142
-23 145 -21 2 3 -10 28 -27 56 -31 54 -36 71 -20 71 5 0 25 -29 45 -64 25 -44
41 -63 50 -59 11 4 12 10 5 23 -8 15 4 46 52 145 61 125 62 126 79 104 18 -24
13 -38 -95 -261 l-32 -68 82 0 81 0 26 57 c14 32 41 92 60 134 l35 76 -30 48
c-16 26 -26 51 -21 56 9 9 103 -152 103 -177 0 -8 -6 -27 -14 -42 -12 -23 -12
-32 1 -64 8 -21 19 -38 24 -38 5 0 2 14 -6 31 -16 30 -13 83 5 94 4 3 22 -20
40 -51 17 -31 33 -54 36 -51 3 2 -11 32 -30 65 l-36 60 18 41 c9 22 19 41 22
41 3 0 27 -39 54 -86 26 -47 50 -83 53 -80 3 2 -18 44 -46 91 -56 95 -57 99
-37 134 l14 25 16 -33 c9 -17 20 -30 24 -27 4 3 30 54 56 115 27 61 52 111 56
111 4 0 15 -17 24 -37 9 -21 25 -49 35 -62 l19 -25 27 55 28 54 41 -83 c22
-45 43 -82 46 -82 15 0 80 64 80 78 0 9 -86 170 -190 357 -104 187 -279 501
-387 697 l-198 357 -47 1 c-39 0 -50 -4 -62 -22z m92 -34 c16 -17 48 -71 80
-134 9 -19 20 -36 25 -38 4 -2 7 -8 7 -12 0 -5 24 -51 54 -102 59 -103 223
-395 266 -473 40 -73 79 -142 111 -197 16 -27 29 -52 29 -56 0 -4 15 -30 33
-57 49 -73 147 -260 147 -280 0 -9 -6 -22 -13 -30 -17 -16 -20 -13 -124 185
-18 36 -38 73 -43 83 -6 9 -14 25 -20 35 -5 9 -27 51 -49 93 -22 41 -48 91
-59 110 -10 19 -44 81 -74 139 -76 142 -125 234 -160 300 -17 30 -50 93 -74
140 -24 47 -60 103 -78 125 -30 35 -37 39 -54 28 -28 -17 -33 -6 -17 34 14 34
11 88 -6 99 -10 6 -12 24 -3 24 3 0 13 -7 22 -16z m-44 -33 c15 -27 13 -34
-70 -212 -47 -101 -89 -187 -93 -192 -4 -4 -16 8 -26 27 l-19 35 43 93 c23 51
61 135 84 186 23 50 47 92 54 92 7 0 19 -13 27 -29z m-9 -340 c-48 -105 -92
-188 -96 -185 -5 3 -6 -1 -3 -9 5 -14 -70 -180 -78 -172 -2 2 -4 -5 -4 -15 0
-10 2 -17 5 -15 6 7 50 -67 51 -84 0 -24 -23 4 -55 65 -21 41 -26 58 -17 61 6
3 10 9 7 13 -3 5 13 46 37 92 23 46 42 85 43 88 0 3 41 92 90 198 74 158 92
189 99 172 7 -15 -11 -62 -79 -209z m383 -355 c155 -288 282 -530 282 -537 0
-8 -11 -31 -24 -52 l-24 -38 -34 63 -35 63 19 38 c11 22 17 41 14 45 -3 3 -13
-12 -22 -34 -13 -30 -19 -36 -26 -24 -5 8 -87 154 -184 325 l-175 309 26 60
c31 72 27 85 -5 16 -13 -28 -27 -50 -31 -50 -18 0 -18 41 1 85 11 26 19 50 16
52 -2 3 -14 -17 -26 -44 l-22 -48 -19 38 c-11 22 -23 37 -26 34 -3 -3 5 -24
18 -46 l22 -40 -54 -120 -54 -120 -17 28 c-15 23 -16 33 -7 60 6 18 17 30 23
28 6 -3 23 16 37 42 l26 46 -27 44 -28 44 -22 -43 c-12 -24 -19 -52 -16 -64 5
-20 -13 -86 -24 -86 -3 0 -15 17 -26 38 l-22 37 87 188 c47 102 88 187 91 187
3 0 133 -236 288 -524z m-565 303 c9 -17 17 -34 17 -38 0 -5 -16 -43 -36 -86
l-36 -79 -23 38 -23 38 37 79 c20 43 38 79 41 79 3 0 13 -14 23 -31z m332
-132 c4 -15 -12 -60 -48 -137 -47 -100 -55 -112 -64 -95 -9 16 -1 42 40 138
29 64 55 117 59 117 4 0 10 -10 13 -23z m-412 -50 c19 -34 18 -34 -11 -99
l-29 -65 34 -58 c33 -56 34 -60 20 -89 l-14 -31 -23 39 -23 38 -19 -36 c-10
-20 -20 -36 -22 -36 -2 0 -18 24 -35 54 l-30 54 62 135 c34 74 64 133 67 132
3 -2 13 -19 23 -38z m591 -262 c16 -27 68 -120 117 -206 l89 -157 -52 -116
-52 -116 -18 29 c-18 28 -18 29 22 116 22 48 40 93 40 100 0 11 -190 358 -204
372 -3 3 -25 -35 -50 -85 -43 -90 -44 -91 -61 -69 -14 19 -15 20 -9 2 20 -55
-5 -121 -27 -72 -10 22 -8 35 17 92 17 40 33 64 41 61 7 -3 21 14 34 38 l21
44 -23 41 c-12 23 -25 41 -29 41 -14 0 -48 -87 -39 -102 9 -16 -7 -78 -19 -78
-4 0 -21 26 -38 58 l-31 57 35 75 c18 41 43 95 53 119 l20 45 68 -120 c37 -65
80 -141 95 -169z m-395 239 c12 -19 21 -39 21 -44 0 -5 -16 -44 -35 -87 l-36
-77 -24 41 -25 41 37 81 c20 44 37 81 39 81 1 0 11 -16 23 -36z m64 -173 c-12
-28 -13 -42 -4 -67 9 -26 8 -39 -7 -75 l-18 -43 -33 58 -33 57 38 85 38 85 17
-32 c15 -30 15 -36 2 -68z m-159 -60 c14 -15 26 -34 26 -43 0 -20 104 -204
135 -238 12 -14 25 -37 28 -51 4 -14 18 -42 32 -63 14 -20 34 -54 44 -74 10
-20 28 -45 40 -56 11 -10 24 -35 27 -55 4 -19 13 -42 21 -49 21 -21 16 -40
-40 -151 -49 -96 -55 -104 -84 -106 -58 -5 -58 5 1 129 31 64 56 124 56 132 0
16 -38 106 -49 114 -9 7 -32 49 -111 197 -39 73 -75 135 -80 138 -5 3 -33 52
-61 108 -28 56 -57 111 -65 122 -14 20 -19 67 -8 78 4 4 19 -19 35 -49 15 -31
39 -68 53 -83z m196 60 c10 -20 -4 -71 -21 -71 -15 0 -19 38 -8 64 15 31 15
31 29 7z m49 -86 c17 -30 31 -59 31 -64 0 -6 -16 -45 -35 -88 l-36 -78 -35 62
-35 62 22 42 21 42 30 -52 c17 -29 33 -50 35 -47 3 3 -9 28 -26 56 -17 28 -31
55 -31 60 0 10 21 60 26 60 1 0 16 -25 33 -55z m323 -219 l59 -109 -37 -83
c-20 -46 -40 -81 -44 -79 -4 2 -28 41 -54 86 -43 74 -46 84 -36 109 7 16 17
27 23 24 10 -3 47 66 47 88 0 4 -10 23 -22 44 l-21 36 -23 -43 c-12 -24 -20
-53 -18 -64 3 -12 0 -34 -6 -50 l-11 -28 -40 69 -41 69 43 87 43 88 39 -68
c22 -37 66 -116 99 -176z m-406 47 c24 -40 39 -75 34 -78 -8 -5 -70 93 -70
113 0 6 -4 12 -8 14 -16 6 -72 109 -66 120 4 6 20 -14 37 -43 16 -30 49 -86
73 -126z m-286 127 c16 -38 24 -38 40 1 l13 31 19 -23 c31 -40 30 -61 -2 -133
l-32 -69 -44 78 c-49 86 -49 84 -32 120 15 33 23 32 38 -5z m-12 -126 l43 -76
-22 -55 c-12 -30 -25 -51 -30 -46 -4 4 -26 41 -49 82 l-42 74 23 48 c12 27 25
49 28 49 3 0 25 -35 49 -76z m272 -204 c0 -8 -110 -252 -117 -260 -2 -2 -8 2
-14 10 -22 35 -20 58 10 108 l30 52 -20 34 -19 33 21 49 c34 79 39 95 30 90
-5 -3 -19 -30 -31 -61 -12 -30 -25 -55 -29 -55 -3 0 -19 23 -34 52 l-29 51 33
73 32 74 68 -122 c38 -66 69 -124 69 -128z m213 136 l-15 -30 -13 24 c-11 21
-11 29 2 54 l15 30 13 -24 c11 -21 11 -29 -2 -54z m-74 -28 c-20 -39 -22 -41
-35 -23 -18 25 -18 28 7 77 l21 42 14 -27 c13 -24 12 -31 -7 -69z m-429 -139
c0 -5 -4 -9 -9 -9 -14 0 -113 179 -105 191 6 10 114 -163 114 -182z m565 119
c3 -9 0 -31 -8 -50 l-14 -33 -22 44 c-20 38 -21 47 -10 73 l12 30 18 -23 c10
-13 21 -31 24 -41z m-85 10 c0 -5 -10 -27 -21 -50 l-21 -42 -13 24 c-11 21
-10 30 8 68 19 39 23 41 34 26 7 -10 13 -22 13 -26z m-58 -83 c7 -16 16 -34
20 -40 5 -5 15 -19 24 -30 12 -16 11 -13 -1 14 -16 31 -16 36 1 72 9 22 20 39
23 39 3 0 16 -16 28 -35 l23 -34 -20 -46 c-11 -26 -24 -44 -28 -41 -5 3 -7 -7
-5 -22 5 -34 -1 -27 -71 98 -30 52 -52 99 -49 103 6 10 37 -33 55 -78z m-506
13 c20 -35 41 -66 47 -69 5 -4 15 -23 22 -43 14 -40 111 -213 132 -234 17 -18
29 -41 37 -74 6 -26 4 -28 -26 -28 -18 0 -67 7 -110 17 l-77 16 -96 103 c-53
57 -95 111 -95 122 0 26 107 252 119 252 6 0 27 -28 47 -62z m224 -52 c0 -6
-10 -33 -23 -59 l-22 -48 -31 58 -31 58 24 54 25 53 29 -52 c16 -29 29 -58 29
-64z m543 -150 c-12 -23 -17 -26 -24 -15 -4 8 -28 48 -52 89 -44 73 -44 75
-29 107 l15 33 53 -92 c51 -90 52 -93 37 -122z m-503 90 c0 -14 -43 -96 -50
-96 -3 0 -11 9 -18 20 -10 17 -8 28 14 72 25 48 27 51 40 33 8 -10 14 -24 14
-29z m151 21 c8 -19 3 -38 -35 -113 -24 -50 -52 -108 -61 -130 -15 -37 -17
-38 -31 -20 -19 26 -20 21 24 112 21 43 47 100 58 126 21 54 30 58 45 25z
m279 -68 l52 -90 -17 -40 c-10 -21 -21 -39 -24 -39 -3 0 -28 38 -54 85 l-49
85 18 45 c9 25 18 45 20 45 1 0 26 -41 54 -91z m-519 -54 c38 -66 68 -123 69
-127 0 -5 -6 -8 -12 -8 -11 1 -148 236 -148 255 0 25 32 -17 91 -120z m273 61
c15 -23 13 -30 -48 -157 l-64 -132 -14 28 c-14 27 -12 34 46 156 33 71 61 129
62 129 1 0 9 -11 18 -24z"/>
<path d="M178 2282 c-98 -14 -178 -29 -178 -32 0 -8 380 46 388 55 8 8 -16 5
-210 -23z"/>
<path d="M910 2212 c-96 -14 -169 -27 -162 -30 18 -6 335 39 347 49 6 6 6 9 0
8 -6 -1 -89 -13 -185 -27z"/>
<path d="M2930 2150 c-25 -4 -85 -13 -133 -20 -48 -7 -86 -14 -83 -17 7 -7
257 28 276 38 13 7 13 8 0 8 -8 -1 -35 -5 -60 -9z"/>
<path d="M127 2100 c-65 -10 -122 -21 -125 -25 -4 -4 6 -5 23 -1 17 3 84 13
150 21 66 9 125 18 130 20 25 9 -71 1 -178 -15z"/>
<path d="M2272 2056 c-195 -28 -351 -53 -348 -56 4 -5 694 91 741 103 64 16
-81 -1 -393 -47z"/>
<path d="M795 2020 c-170 -26 -265 -44 -182 -35 151 16 384 50 392 57 13 11
-6 9 -210 -22z"/>
<path d="M2857 1963 c-59 -9 -106 -18 -103 -20 3 -3 44 0 91 7 80 11 87 11
101 -6 9 -12 13 -36 12 -62 -2 -25 1 -41 7 -39 12 4 13 84 1 109 -6 12 -2 17
16 21 54 10 -22 4 -125 -10z"/>
<path d="M210 1937 c-118 -17 -207 -33 -198 -35 17 -3 450 57 457 64 8 8 -46
2 -259 -29z"/>
<path d="M2901 1918 c-1 -34 24 -38 32 -6 7 26 -1 38 -12 19 -7 -11 -10 -11
-14 0 -3 8 -6 2 -6 -13z"/>
<path d="M2835 1921 c-3 -5 1 -16 9 -24 22 -22 7 -28 -21 -10 -18 12 -21 18
-11 24 9 6 6 9 -9 9 -30 0 -30 -26 -1 -36 21 -6 21 -7 3 -20 -10 -8 -16 -17
-12 -21 4 -3 16 2 27 12 12 11 20 13 20 6 0 -9 5 -9 20 -1 25 13 26 35 3 45
-17 7 -16 8 2 15 19 8 19 9 -2 9 -12 1 -24 -3 -28 -8z"/>
<path d="M2385 1860 c-17 -38 -17 -42 -1 -85 10 -25 22 -45 27 -45 13 0 11 12
-7 49 -19 38 -13 72 18 101 21 20 21 20 1 20 -14 0 -26 -12 -38 -40z"/>
<path d="M2173 1866 c-83 -11 -155 -25 -160 -30 -4 -5 7 -6 27 -2 19 3 100 15
180 26 80 11 150 22 155 25 24 9 -61 1 -202 -19z"/>
<path d="M2526 1864 c-10 -25 -7 -84 4 -84 6 0 10 9 10 20 0 23 15 27 24 5 3
-8 10 -15 16 -15 5 0 0 20 -12 45 -24 48 -32 54 -42 29z"/>
<path d="M438 1796 c-235 -34 -431 -66 -435 -70 -5 -5 5 -6 22 -2 17 3 223 33
459 66 391 55 492 72 410 69 -16 -1 -221 -29 -456 -63z"/>
<path d="M2310 1835 c0 -8 -8 -15 -17 -16 -14 0 -13 -2 5 -9 16 -7 22 -18 22
-40 0 -19 4 -29 10 -25 6 4 8 16 5 26 -4 11 -1 26 5 34 9 11 9 15 1 15 -6 0
-11 7 -11 15 0 8 -4 15 -10 15 -5 0 -10 -7 -10 -15z"/>
<path d="M2230 1758 c0 -21 5 -38 10 -38 6 0 10 10 10 23 0 12 4 29 10 37 7
11 11 9 19 -13 6 -16 11 -33 11 -38 0 -5 5 -9 10 -9 13 0 13 4 -4 45 -12 28
-20 34 -40 33 -23 -2 -26 -7 -26 -40z"/>
<path d="M2122 1750 c3 -35 22 -45 24 -13 1 10 5 25 8 33 5 11 0 16 -14 16
-18 0 -21 -6 -18 -36z"/>
<path d="M2050 1770 c0 -5 7 -10 15 -10 9 0 15 -6 13 -13 -2 -7 2 -14 7 -15
16 -5 19 30 3 39 -18 12 -38 11 -38 -1z"/>
<path d="M388 1612 c-214 -31 -388 -59 -388 -63 0 -5 769 102 815 114 64 16
-85 -2 -427 -51z"/>
<path d="M323 1500 c-11 -19 -25 -30 -40 -30 -13 0 -23 -4 -23 -10 0 -5 8 -10
17 -10 16 0 16 -1 1 -17 -11 -11 -58 -22 -140 -34 -68 -10 -127 -19 -132 -19
-5 0 -7 -2 -4 -5 3 -3 52 1 109 9 57 8 114 14 127 13 23 -1 29 -12 12 -22 -13
-8 -13 -25 -1 -25 5 0 13 10 17 23 7 24 33 57 45 57 4 0 31 -16 59 -35 29 -20
55 -34 57 -31 2 2 -7 22 -21 45 -14 22 -26 42 -26 45 0 2 10 7 23 11 20 7 19
8 -10 12 -30 4 -39 15 -34 46 3 18 -20 4 -36 -23z"/>
<path d="M660 1475 c-41 -7 -115 -18 -163 -25 -48 -7 -86 -14 -83 -17 7 -7
319 38 331 48 11 10 15 11 -85 -6z"/>
<path d="M2895 1429 c-88 -13 -100 -19 -25 -13 71 6 154 22 110 22 -14 0 -52
-4 -85 -9z"/>
<path d="M554 1397 c-15 -31 -23 -38 -41 -34 -30 6 -40 -11 -17 -27 16 -12 16
-15 -5 -45 -28 -39 -25 -49 14 -40 23 5 25 7 8 8 -22 1 -22 2 -5 30 9 16 20
27 25 24 4 -2 3 -11 -4 -19 -14 -17 2 -19 19 -2 8 8 15 8 28 -3 16 -13 15 -15
-12 -21 -23 -6 -22 -7 9 -3 27 3 40 0 44 -10 3 -8 9 -12 14 -9 5 3 7 10 4 15
-4 5 -1 9 4 9 6 0 2 9 -9 20 -25 25 -25 38 -2 63 17 19 16 20 -10 14 -24 -6
-27 -4 -35 31 l-10 37 -19 -38z m36 -56 c0 -13 -37 -24 -50 -16 -6 4 -8 11 -5
16 8 12 55 12 55 0z"/>
<path d="M291 1283 c-6 -12 -24 -24 -41 -28 -31 -7 -39 -20 -17 -28 8 -3 4
-13 -12 -31 -32 -34 -21 -45 12 -12 15 14 31 26 36 26 20 0 126 -51 138 -66 6
-9 14 -11 17 -5 3 5 -10 30 -29 55 -19 26 -35 49 -35 52 0 4 21 4 48 1 32 -4
39 -3 22 3 -24 8 -24 8 -2 9 12 1 22 5 22 9 0 5 -27 6 -60 4 -50 -4 -63 -1
-74 14 -13 17 -14 17 -25 -3z m22 -44 c-36 -15 -48 -10 -27 10 14 14 22 16 32
8 11 -9 11 -12 -5 -18z m49 -26 c29 -26 21 -33 -21 -15 -22 9 -37 20 -34 24 7
13 36 9 55 -9z"/>
<path d="M2905 1254 l-70 -13 70 5 c39 4 77 10 85 15 20 11 6 10 -85 -7z"/>
<path d="M120 1209 c-102 -16 -122 -20 -117 -25 5 -5 209 24 216 31 6 7 -34 4
-99 -6z"/>
<path d="M505 1089 c-33 -4 -89 -12 -125 -18 -36 -6 -137 -20 -225 -33 -88
-12 -152 -24 -143 -26 18 -3 590 77 597 84 6 6 -32 3 -104 -7z"/>
<path d="M2583 1031 c-100 -14 -185 -30 -190 -35 -4 -5 5 -6 22 -2 17 3 113
17 215 32 175 24 230 36 164 33 -16 -1 -111 -13 -211 -28z"/>
<path d="M1926 960 l-35 -75 20 -30 c11 -16 30 -47 42 -67 12 -21 26 -38 30
-38 9 0 8 1 -40 77 -18 29 -33 57 -33 63 0 12 48 110 54 110 3 0 28 -41 56
-91 29 -49 55 -88 57 -85 3 3 -22 52 -55 108 l-61 103 -35 -75z"/>
<path d="M297 884 c-159 -23 -292 -45 -295 -49 -4 -4 9 -4 28 -1 101 18 527
76 556 76 19 0 34 5 34 10 0 13 12 14 -323 -36z"/>
<path d="M344 446 c-3 -9 -2 -22 4 -29 16 -20 25 -224 10 -229 -7 -3 -11 -19
-10 -41 2 -31 -1 -37 -17 -37 -25 0 -32 44 -13 83 7 16 12 41 11 55 -2 15 0
33 5 40 11 18 -8 36 -29 28 -12 -4 -14 -10 -5 -25 14 -27 12 -72 -5 -95 -10
-13 -11 -25 -4 -43 13 -34 11 -43 -6 -43 -16 0 -21 25 -31 150 -3 47 -8 94
-10 105 -1 10 2 25 8 33 16 19 -16 52 -34 34 -9 -9 -9 -17 0 -34 6 -13 13 -59
17 -103 8 -112 16 -179 22 -188 3 -5 -3 -7 -13 -5 -15 2 -20 15 -24 56 -3 29
-1 53 4 55 15 5 -2 37 -20 37 -13 0 -15 -7 -10 -40 3 -22 9 -58 12 -80 5 -32
3 -40 -10 -40 -16 0 -20 19 -21 115 0 30 -4 41 -17 43 -19 4 -25 -22 -8 -33
13 -8 13 -135 1 -135 -5 0 -12 8 -15 18 -6 24 -21 251 -18 285 2 30 -22 47
-40 29 -9 -9 -7 -16 4 -29 10 -12 19 -59 27 -148 14 -161 14 -155 -4 -155 -10
0 -15 10 -15 34 0 18 -8 44 -18 57 -25 32 -34 70 -20 87 9 10 8 16 -3 23 -8 5
-18 9 -22 9 -14 0 -20 -31 -8 -43 6 -6 11 -23 11 -37 0 -15 9 -35 19 -44 10
-10 21 -33 23 -52 3 -28 1 -34 -14 -34 -13 0 -18 8 -18 29 0 18 -6 31 -16 35
-25 10 -30 -2 -8 -18 17 -13 17 -18 6 -48 -14 -40 -17 -98 -3 -63 5 11 7 23 4
28 -6 10 12 15 72 21 81 8 219 26 238 32 26 8 45 -12 52 -57 5 -29 11 -39 21
-35 8 3 45 11 82 17 37 6 76 19 87 29 13 13 40 20 80 22 47 2 60 7 63 21 4 19
-32 25 -43 7 -3 -5 -22 -10 -42 -10 -21 0 -45 -8 -56 -17 -17 -16 -166 -56
-176 -48 -10 10 14 25 40 25 28 0 79 37 79 58 0 4 23 13 52 18 50 9 52 11 72
59 11 28 27 55 35 61 18 14 6 34 -20 34 -15 0 -19 -5 -15 -18 4 -10 -3 -39
-14 -65 -18 -41 -24 -46 -63 -52 -30 -5 -51 -16 -72 -40 -17 -19 -44 -36 -62
-40 -29 -6 -34 -3 -42 18 -6 14 -15 28 -20 32 -16 9 -13 42 5 70 11 17 14 36
10 57 -3 18 -7 70 -8 116 -1 54 -6 86 -15 93 -9 9 -14 7 -19 -5z"/>
<path d="M2795 360 c-34 -6 -36 -7 -10 -8 17 0 48 3 70 7 33 7 35 9 10 8 -16
0 -48 -3 -70 -7z"/>
<path d="M2620 335 c-41 -7 -65 -13 -52 -14 13 0 55 4 93 10 39 6 73 8 76 5 3
-3 -7 -22 -22 -42 l-28 -36 47 3 46 4 1 -40 1 -40 9 40 c11 57 11 117 -1 110
-5 -3 -10 -17 -10 -29 0 -17 -7 -25 -25 -28 -29 -6 -31 -1 -9 30 30 44 7 49
-126 27z"/>
<path d="M2410 305 c-41 -7 -70 -13 -63 -14 7 0 17 -34 24 -76 8 -44 18 -75
25 -75 28 0 74 13 74 22 0 5 -15 6 -34 3 -33 -7 -33 -6 -45 39 -18 73 -15 84
22 91 104 17 129 23 102 23 -16 -1 -64 -6 -105 -13z"/>
<path d="M2540 280 c0 -11 7 -20 15 -20 8 0 15 9 15 20 0 11 -7 20 -15 20 -8
0 -15 -9 -15 -20z"/>
<path d="M2235 280 c-34 -6 -36 -7 -10 -8 17 0 48 3 70 7 33 7 35 9 10 8 -16
0 -48 -3 -70 -7z"/>
<path d="M2208 185 c-3 -42 -7 -78 -10 -80 -3 -3 -25 -9 -49 -14 -24 -5 -33
-9 -19 -9 28 -1 122 15 103 17 -8 0 -13 15 -13 35 0 29 4 34 28 39 26 6 44 -7
55 -37 2 -6 8 -8 11 -4 19 17 -65 128 -96 128 -3 0 -8 -34 -10 -75z m45 31
c22 -17 22 -22 -2 -29 -14 -3 -20 2 -24 19 -5 27 0 29 26 10z"/>
<path d="M1880 230 c-24 -5 -28 -8 -12 -9 19 -1 21 -4 12 -20 -16 -32 -12 -87
11 -125 22 -38 50 -46 80 -23 21 16 40 53 32 61 -10 10 -63 7 -63 -4 0 -5 9
-10 20 -10 24 0 26 -13 5 -30 -23 -19 -47 -8 -67 31 -16 32 -17 41 -6 75 16
47 48 57 72 23 21 -31 33 -16 12 16 -17 26 -32 28 -96 15z"/>
<path d="M2066 218 c-33 -46 -10 -118 37 -118 19 0 47 48 47 80 0 57 -54 81
-84 38z m48 6 c31 -12 14 -104 -19 -104 -27 0 -37 36 -21 75 16 38 17 38 40
29z"/>
<path d="M495 209 c-33 -5 -64 -11 -70 -13 -21 -9 43 -4 115 8 84 15 49 18
-45 5z"/>
<path d="M1426 167 c-192 -28 -344 -53 -338 -55 10 -3 727 95 747 103 33 12
-102 -3 -409 -48z"/>
<path d="M2546 202 c-7 -12 3 -42 14 -42 18 0 22 22 7 37 -9 9 -17 11 -21 5z"/>
<path d="M2791 159 c-52 -5 -99 -14 -105 -20 -8 -9 -5 -10 14 -6 14 3 71 9
128 13 56 4 102 11 102 15 0 10 -5 10 -139 -2z"/>
<path d="M2785 123 c-16 -3 -34 -9 -39 -14 -12 -11 -4 -11 104 6 85 13 85 13
25 12 -33 0 -73 -2 -90 -4z"/>
<path d="M865 87 c-77 -12 -131 -23 -120 -24 11 -2 90 8 175 21 85 13 139 24
120 24 -19 0 -98 -10 -175 -21z"/>
<path d="M1680 25 c-80 -12 -135 -23 -123 -24 22 -1 300 37 318 44 26 10 -64
0 -195 -20z"/>
<path d="M2880 20 c-27 -6 -29 -8 -10 -8 14 -1 43 3 65 7 33 7 35 9 10 9 -16
-1 -46 -4 -65 -8z"/>
</g>
</svg>
